Coordinates
version=1
nRows=13
nColumns=40
inDegrees=yes

Units are S.I. units (second, meters, Newtons, ...)
Angles are in degrees.

endheader
time	pelvis_tilt	pelvis_list	pelvis_rotation	pelvis_tx	pelvis_ty	pelvis_tz	hip_flexion_r	hip_adduction_r	hip_rotation_r	knee_angle_r	knee_angle_r_beta	ankle_angle_r	subtalar_angle_r	mtp_angle_r	hip_flexion_l	hip_adduction_l	hip_rotation_l	knee_angle_l	knee_angle_l_beta	ankle_angle_l	subtalar_angle_l	mtp_angle_l	lumbar_extension	lumbar_bending	lumbar_rotation	arm_flex_r	arm_add_r	arm_rot_r	elbow_flex_r	pro_sup_r	wrist_flex_r	wrist_dev_r	arm_flex_l	arm_add_l	arm_rot_l	elbow_flex_l	pro_sup_l	wrist_flex_l	wrist_dev_l
     37.46300000	     -5.57426845	     -5.05399220	      5.22583322	      0.89480883	      0.92119731	      0.48252354	      3.25860488	      3.59493202	    -16.47435621	     13.08257544	     13.08257544	     16.44139178	     -1.00293708	     -3.07119967	     31.71111896	     -6.23665610	     -0.14463866	     20.96256013	     20.96256013	      4.92355564	     -9.11294159	      5.69861967	     -9.24197139	      4.91956642	      3.23130720	     39.24694154	    -14.22852449	      2.73204982	     93.32189007	     44.24907335	      0.00000000	      0.00000000	     -8.13290867	     -6.12227153	     -5.69840284	     30.91131948	     45.57562061	      0.00000000	      0.00000000
     37.47600000	     -5.51375109	     -5.17146766	      4.88690423	      0.89666903	      0.92016549	      0.48157258	      2.65727042	      3.66850783	    -16.16378284	     13.18514930	     13.18514930	     16.80661448	     -0.82559729	     -3.16768000	     31.18105212	     -6.43750993	     -0.27103495	     21.67682338	     21.67682338	      4.48761836	     -9.47642327	      5.68217023	     -9.01041789	      4.89231154	      3.42320772	     38.55223095	    -13.80689560	      3.03033271	     93.10699493	     44.24664326	      0.00000000	      0.00000000	     -7.90656634	     -6.37573868	     -5.71997069	     31.05376936	     45.58294995	      0.00000000	      0.00000000
     37.48900000	     -5.44813815	     -5.29580362	      4.60708574	      0.89850342	      0.91926545	      0.48038675	      2.02480808	      3.73084808	    -15.91671060	     13.23238712	     13.23238712	     17.11015899	     -0.62693549	     -3.21334188	     30.72231150	     -6.59326398	     -0.23165929	     22.44900760	     22.44900760	      4.21303064	     -9.88080781	      5.57037454	     -8.80003311	      4.89187399	      3.56831989	     37.71615139	    -13.46011496	      3.33144165	     92.75032524	     44.24813478	      0.00000000	      0.00000000	     -7.62606498	     -6.59368125	     -5.73998403	     31.24827055	     45.59071158	      0.00000000	      0.00000000
     37.50200000	     -5.40137146	     -5.40117194	      4.36028164	      0.90024312	      0.91861289	      0.47901558	      1.43438121	      3.74994660	    -15.68457902	     13.30830187	     13.30830187	     17.35356074	     -0.43553895	     -3.24325764	     30.29815187	     -6.69540975	     -0.12516292	     23.14196046	     23.14196046	      4.11074591	    -10.25679659	      5.42164488	     -8.60131851	      4.90666439	      3.63192430	     36.79083734	    -13.18984575	      3.61844440	     92.30269900	     44.25212214	      0.00000000	      0.00000000	     -7.26960139	     -6.82305702	     -5.76603307	     31.47000298	     45.60043152	      0.00000000	      0.00000000
     37.51500000	     -5.38789072	     -5.56576368	      4.16321540	      0.90180427	      0.91813671	      0.47739858	      0.89873068	      3.78949291	    -15.64864136	     13.38207824	     13.38207824	     17.49135788	     -0.08453879	     -3.03220278	     30.07604828	     -6.77832055	      0.24960186	     23.99892107	     23.99892107	      4.08647962	    -10.94631759	      4.96787848	     -8.34495928	      4.96969211	      3.89798592	     35.81063960	    -13.29832288	      3.90786708	     90.96024593	     44.29221396	      0.00000000	      0.00000000	     -6.92382050	     -7.01552820	     -5.78827604	     31.95274120	     45.60984267	      0.00000000	      0.00000000
     37.52800000	     -5.33720372	     -5.57743442	      3.97386058	      0.90318557	      0.91820815	      0.47558125	      0.48011665	      3.61206342	    -15.52051322	     13.73811566	     13.73811566	     17.55065368	      0.01114054	     -2.97675734	     29.63908383	     -6.73559823	      0.37465053	     24.48338920	     24.48338920	      4.31781387	    -11.29318026	      4.70820068	     -8.25842865	      4.87991800	      3.86970751	     34.65807110	    -13.04069265	      4.26151577	     90.14737377	     44.30729444	      0.00000000	      0.00000000	     -6.47458265	     -7.25945464	     -5.81744164	     32.24295514	     45.62162980	      0.00000000	      0.00000000
     37.54100000	     -5.28459764	     -5.59083262	      3.85471755	      0.90437116	      0.91858437	      0.47359206	      0.15771107	      3.40784522	    -15.43712429	     14.24312495	     14.24312495	     17.53822474	      0.03139857	     -2.96049106	     29.24709466	     -6.66356029	      0.54114682	     24.94828479	     24.94828479	      4.67111186	    -11.60269882	      4.46730578	     -8.22070197	      4.83656631	      3.86777317	     33.34330225	    -12.88011110	      4.60364156	     89.18129448	     44.32594216	      0.00000000	      0.00000000	     -5.91625018	     -7.50427916	     -5.86075317	     32.55578127	     45.63693514	      0.00000000	      0.00000000
     37.55400000	     -5.20715148	     -5.61613596	      3.79889191	      0.90538148	      0.91931872	      0.47135482	     -0.06988202	      3.17545867	    -15.36637478	     14.93667662	     14.93667662	     17.43996395	     -0.01942237	     -2.98651737	     28.81750707	     -6.57350443	      0.70991774	     25.31591786	     25.31591786	      5.08963556	    -11.83507071	      4.25977563	     -8.19339111	      4.83376163	      3.85618760	     31.91781565	    -12.79387531	      4.93035861	     88.10270508	     44.34749812	      0.00000000	      0.00000000	     -5.27941199	     -7.73417147	     -5.91069599	     32.88920661	     45.65420474	      0.00000000	      0.00000000
     37.56700000	     -5.44079908	     -5.46195787	      3.55385806	      0.90584250	      0.91981087	      0.46909132	      0.55009902	      2.55558663	    -15.27983592	     16.57139163	     16.57139163	     17.47764263	     -0.32887090	     -3.18520685	     28.62094575	     -6.33926898	      0.61250220	     25.51199669	     25.51199669	      5.59230390	    -12.15279555	      4.15936570	     -7.91732534	      4.55423229	      4.36649752	     30.72527660	    -13.34375114	      5.14164343	     85.27181812	     44.43768117	      0.00000000	      0.00000000	     -4.46809603	     -7.89005807	     -6.01235040	     33.48880797	     45.68212580	      0.00000000	      0.00000000
     37.58000000	     -5.50035175	     -5.42700980	      3.44543237	      0.90631987	      0.92079041	      0.46675423	      0.95913987	      2.11998255	    -15.15066657	     18.10283876	     18.10283876	     17.28513105	     -0.76226242	     -3.40079250	     28.19864272	     -6.20141064	      0.61160140	     25.57005905	     25.57005905	      6.12893095	    -12.25545674	      4.18129988	     -7.82328275	      4.43988557	      4.25739643	     29.60329705	    -13.18204714	      5.51311890	     82.73991525	     44.51521480	      0.00000000	      0.00000000	     -3.82454362	     -8.08728085	     -6.12313675	     33.96727087	     45.70913467	      0.00000000	      0.00000000
     37.59300000	     -5.54251607	     -5.34625706	      3.31672005	      0.90665226	      0.92189923	      0.46431336	      1.50503074	      1.60246206	    -14.96782447	     19.88195497	     19.88195497	     16.97071902	     -1.41279918	     -3.79283919	     27.69564441	     -6.04686049	      0.41226216	     25.52211507	     25.52211507	      6.69298939	    -12.21594186	      4.15442655	     -7.84310603	      4.34976936	      4.30733013	     28.28213104	    -13.19981780	      5.87092671	     80.41107571	     44.58298103	      0.00000000	      0.00000000	     -3.12469750	     -8.29913367	     -6.26901127	     34.54650828	     45.74118090	      0.00000000	      0.00000000
     37.60600000	     -5.61402644	     -5.36457459	      3.20162539	      0.90679250	      0.92296663	      0.46199734	      2.24067006	      1.23437203	    -14.55690598	     21.83152179	     21.83152179	     16.15786747	     -2.74213627	     -5.02559228	     27.25413652	     -6.00197970	      0.24059747	     25.49302808	     25.49302808	      7.34859850	    -12.03439425	      4.45384372	     -7.74478168	      4.35821999	      3.62296129	     27.93130477	    -12.39112789	      6.56031619	     75.69353911	     44.74296083	      0.00000000	      0.00000000	     -2.99904001	     -8.57575228	     -6.69085043	     35.62386491	     45.80633025	      0.00000000	      0.00000000
     37.61900000	     -5.52044844	     -5.28171006	      3.07818552	      0.90696346	      0.92423387	      0.45959340	      2.98258545	      0.65643714	    -14.37836519	     24.18475215	     24.18475215	     15.65507008	     -3.54298189	     -5.55878093	     26.48486586	     -5.87127632	     -0.02639665	     25.23593429	     25.23593429	      7.83508931	    -11.76526796	      4.30267617	     -7.95816986	      4.28567811	      3.78813546	     26.27947281	    -12.60285183	      6.92644983	     74.20722569	     44.77659480	      0.00000000	      0.00000000	     -2.15580818	     -8.78118635	     -6.84600140	     36.28759736	     45.84034176	      0.00000000	      0.00000000
